<?xml version="1.0" standalone="no"?>
<!DOCTYPE svg PUBLIC "-//W3C//DTD SVG 20010904//EN"
 "http://www.w3.org/TR/2001/REC-SVG-20010904/DTD/svg10.dtd">
<svg version="1.0" xmlns="http://www.w3.org/2000/svg"
 width="854.000000pt" height="398.000000pt" viewBox="0 0 854.000000 398.000000"
 preserveAspectRatio="xMidYMid meet">

<g transform="translate(0.000000,398.000000) scale(0.100000,-0.100000)"
fill="#bbb" stroke="none">
<path d="M747 3962 c-10 -10 -17 -31 -17 -45 0 -26 -2 -27 -60 -27 l-60 0 0
-399 0 -400 -229 -3 -229 -3 -44 -30 c-50 -36 -84 -83 -98 -136 -7 -24 -9
-459 -8 -1266 l3 -1228 22 -40 c48 -90 111 -125 239 -132 l94 -6 0 -53 c0 -47
3 -54 20 -54 14 0 22 -10 30 -38 26 -100 149 -129 214 -51 15 18 26 43 26 60
0 24 4 29 25 29 24 0 25 3 25 55 l0 55 380 0 380 0 0 -54 c0 -49 2 -55 22 -58
16 -2 24 -12 29 -36 19 -94 142 -128 208 -58 13 14 26 40 30 58 5 24 13 34 29
36 20 3 22 9 22 58 l0 54 60 0 c133 0 220 42 270 130 l25 45 0 1251 0 1251
-30 48 c-17 27 -50 63 -74 80 l-43 30 -226 5 -227 5 -3 397 -2 397 -63 3 c-61
3 -62 4 -65 33 -7 56 1 55 -342 55 -294 0 -318 -1 -333 -18z m-17 -147 c0 -8
9 -24 20 -35 19 -19 33 -20 319 -20 165 0 311 4 325 9 14 6 26 19 28 33 2 18
9 23 33 23 l30 0 0 -365 0 -365 -402 -3 -403 -2 0 370 0 370 25 0 c16 0 25 -6
25 -15z m-119 -1390 c16 -9 34 -27 39 -41 6 -15 10 -315 10 -755 0 -808 2
-780 -63 -797 -19 -5 -43 -5 -60 1 -60 20 -57 -18 -57 802 l0 752 23 20 c39
36 64 40 108 18z m537 -21 l22 -25 0 -747 c0 -817 3 -779 -57 -799 -17 -6 -41
-6 -60 -1 -65 17 -63 -11 -63 797 0 439 4 740 10 755 21 57 105 69 148 20z
m482 21 c16 -8 34 -24 40 -34 7 -13 10 -273 10 -766 l0 -746 -25 -24 c-43 -44
-119 -32 -144 22 -15 32 -16 1486 -1 1513 11 21 56 49 78 50 7 0 26 -7 42 -15z"/>
<path d="M5715 3723 c-38 -24 -76 -48 -84 -52 -12 -7 -104 -331 -96 -339 1 -2
77 -22 167 -45 l164 -41 83 48 c45 27 79 52 74 56 -4 4 -66 22 -136 40 -91 24
-124 36 -113 42 36 20 3 68 -33 48 -27 -14 -28 -15 15 146 19 75 34 137 32
139 -2 1 -34 -17 -73 -42z"/>
<path d="M6743 3753 c-55 -4 -77 -20 -67 -47 6 -16 19 -17 118 -11 119 8 151
20 126 49 -13 16 -48 18 -177 9z"/>
<path d="M7072 3748 c-9 -11 -9 -18 1 -30 9 -12 41 -17 125 -22 98 -6 113 -4
119 10 12 31 -19 43 -127 50 -86 5 -108 4 -118 -8z"/>
<path d="M6398 3700 c-48 -10 -92 -21 -97 -25 -13 -7 -15 -42 -3 -49 13 -8
220 38 233 51 9 9 9 16 -1 28 -15 18 -23 18 -132 -5z"/>
<path d="M7465 3706 c-33 -24 -6 -43 101 -71 109 -28 138 -27 132 2 -2 12 -25
25 -69 40 -105 35 -146 42 -164 29z"/>
<path d="M6022 3596 c-102 -36 -118 -47 -109 -70 9 -23 29 -20 137 18 84 30
95 36 95 57 0 33 -17 33 -123 -5z"/>
<path d="M7827 3573 c-15 -15 -5 -33 31 -54 20 -13 63 -42 94 -66 61 -46 85
-53 95 -26 7 19 -37 61 -124 119 -49 32 -82 42 -96 27z"/>
<path d="M8135 3290 c-4 -6 11 -39 33 -73 21 -34 50 -80 63 -102 12 -22 27
-43 33 -47 16 -11 36 3 36 24 0 20 -52 115 -97 176 -24 32 -56 42 -68 22z"/>
<path d="M6323 3069 c-24 -9 -29 -34 -38 -234 -8 -191 -53 -453 -126 -748 -45
-179 -45 -179 31 -255 71 -70 89 -58 138 93 82 250 149 585 171 845 11 140 -2
181 -81 256 -50 48 -65 54 -95 43z"/>
<path d="M2575 2949 c-93 -10 -154 -29 -169 -51 -15 -24 8 -88 45 -126 l31
-32 114 0 114 0 -6 -42 c-14 -105 -39 -230 -90 -451 -30 -131 -56 -255 -57
-275 -2 -56 85 -172 129 -172 27 0 46 51 80 217 20 92 62 276 95 408 32 132
59 257 59 278 l0 37 178 0 c175 0 179 0 201 24 65 69 -60 162 -251 186 -95 12
-356 11 -473 -1z"/>
<path d="M8337 2913 c-3 -5 10 -60 28 -123 33 -115 53 -146 77 -122 10 10 8
29 -9 95 -30 119 -48 157 -72 157 -11 0 -22 -3 -24 -7z"/>
<path d="M3645 2617 c-48 -16 -99 -42 -139 -71 -24 -18 -30 -19 -34 -6 -11 33
-70 80 -100 80 -54 0 -57 -13 -57 -239 l-1 -206 -37 -104 c-22 -63 -37 -123
-37 -150 0 -92 64 -161 119 -130 54 31 93 116 143 314 46 184 91 256 206 331
117 76 148 127 103 168 -25 23 -115 30 -166 13z"/>
<path d="M4243 2616 c-65 -21 -104 -50 -184 -133 -112 -117 -177 -225 -218
-357 -38 -122 -24 -173 72 -263 58 -55 115 -79 164 -67 50 12 118 51 170 98
28 25 53 46 56 46 3 0 8 -12 12 -27 9 -39 43 -91 70 -109 47 -30 76 10 90 121
4 28 18 98 33 158 23 93 24 112 14 142 -11 29 -10 39 6 72 11 21 25 57 31 80
10 37 9 48 -8 81 -21 42 -86 105 -142 140 -46 28 -112 35 -166 18z m117 -222
c14 -37 12 -71 -5 -78 -8 -3 -15 -13 -15 -23 0 -10 -13 -46 -30 -81 -48 -102
-176 -207 -261 -214 -32 -3 -34 -2 -31 27 11 103 169 327 265 374 54 27 65 26
77 -5z"/>
<path d="M4658 2595 c-18 -39 10 -219 72 -463 57 -224 76 -270 128 -305 68
-46 79 -45 131 11 58 63 162 247 245 433 80 180 102 252 87 285 -13 30 -68 64
-103 64 -43 0 -72 -48 -167 -276 -108 -259 -107 -256 -114 -218 -3 16 -9 83
-13 149 -3 65 -12 139 -19 163 -29 94 -110 170 -192 180 -38 4 -43 2 -55 -23z"/>
<path d="M5678 2605 c-127 -47 -278 -223 -329 -385 -29 -91 -29 -191 0 -255
26 -60 81 -119 136 -148 51 -26 175 -35 254 -17 123 27 231 102 231 161 0 47
-36 55 -134 28 -44 -11 -124 -24 -177 -26 -90 -5 -98 -4 -119 17 -19 19 -22
30 -18 81 2 32 6 60 9 62 2 2 47 1 99 -2 125 -9 201 2 276 39 67 33 129 94
140 136 23 91 -78 255 -191 308 -40 19 -126 20 -177 1z m149 -211 c89 -68 -4
-133 -175 -122 l-54 3 37 47 c42 56 100 98 134 98 13 0 39 -11 58 -26z"/>
<path d="M8442 2498 c-8 -8 -12 -51 -12 -129 0 -122 8 -147 44 -133 23 9 24
235 0 258 -19 19 -17 19 -32 4z"/>
<path d="M8422 2071 c-6 -3 -13 -20 -17 -36 -4 -17 -18 -68 -32 -114 -13 -46
-22 -89 -19 -97 8 -21 34 -17 50 9 18 27 66 207 59 223 -6 16 -27 24 -41 15z"/>
<path d="M8265 1662 c-51 -62 -135 -184 -135 -196 0 -29 32 -26 62 6 51 55
118 154 118 176 0 27 -27 36 -45 14z"/>
<path d="M3083 1471 c-106 -27 -225 -126 -278 -232 -74 -145 -74 -364 1 -510
102 -202 387 -284 546 -158 l37 29 21 -40 20 -40 135 0 135 0 0 170 0 170 25
0 c24 0 25 2 25 70 l0 70 -220 0 -220 0 0 -70 0 -70 40 0 c38 0 40 -2 40 -31
0 -61 -45 -99 -119 -99 -115 0 -181 79 -189 226 -9 164 63 274 178 274 75 0
126 -41 145 -117 l12 -48 117 -3 116 -3 0 201 0 200 -99 0 -98 0 -13 -45 c-14
-51 -21 -55 -43 -21 -28 42 -113 76 -202 81 -44 2 -94 1 -112 -4z"/>
<path d="M7905 1295 c-122 -82 -119 -80 -112 -98 11 -29 43 -19 139 46 66 44
93 68 93 82 0 35 -37 26 -120 -30z"/>
<path d="M5040 1194 c-19 -8 -49 -30 -66 -50 l-31 -36 -16 41 -17 41 -125 0
-125 0 0 -85 c0 -84 0 -85 25 -85 l25 0 0 -160 0 -160 -25 0 c-25 0 -25 -1
-25 -90 l0 -90 185 0 185 0 0 90 0 90 -35 0 -35 0 0 88 c0 136 43 192 148 192
l42 0 0 115 0 115 -37 0 c-21 -1 -54 -7 -73 -16z"/>
<path d="M6540 1189 c-159 -72 -212 -274 -107 -411 95 -125 276 -144 395 -43
123 105 124 299 2 408 -23 22 -57 45 -76 53 -50 21 -160 18 -214 -7z"/>
<path d="M3790 1100 l0 -90 30 0 30 0 0 -138 c0 -266 56 -357 229 -370 86 -6
132 9 188 61 l43 40 18 -41 17 -42 128 0 127 0 0 90 0 90 -35 0 -35 0 0 245 0
245 -175 0 -176 0 3 -87 3 -88 48 -3 49 -3 -4 -124 c-3 -107 -6 -127 -24 -152
-16 -22 -31 -29 -63 -31 -65 -5 -71 20 -71 278 l0 210 -165 0 -165 0 0 -90z"/>
<path d="M5202 1103 c3 -88 3 -88 31 -91 l27 -3 0 -123 c0 -68 5 -148 10 -177
24 -130 91 -194 213 -206 88 -8 146 9 197 58 22 22 42 39 44 39 2 0 11 -18 20
-40 l16 -40 125 0 125 0 0 90 0 90 -30 0 -30 0 0 245 0 245 -175 0 -175 0 0
-90 0 -90 40 0 40 0 0 -129 c0 -115 -2 -131 -21 -155 -16 -20 -29 -26 -59 -26
-66 0 -73 25 -78 278 l-4 212 -160 0 -159 0 3 -87z"/>
<path d="M7500 1101 c-85 -30 -105 -40 -105 -56 0 -31 36 -30 140 5 105 35
133 54 114 76 -16 19 -28 17 -149 -25z"/>
<path d="M7085 1011 c-101 -15 -110 -18 -113 -39 -2 -13 3 -24 11 -28 16 -6
232 21 248 31 24 15 0 60 -29 54 -4 -1 -56 -9 -117 -18z"/>
</g>
</svg>
